<?xml version="1.0" standalone="no"?>
<!DOCTYPE svg PUBLIC "-//W3C//DTD SVG 20010904//EN"
 "http://www.w3.org/TR/2001/REC-SVG-20010904/DTD/svg10.dtd">
<svg version="1.0" xmlns="http://www.w3.org/2000/svg"
 width="145.000000pt" height="300.000000pt" viewBox="0 0 145.000000 300.000000"
 preserveAspectRatio="xMidYMid meet">
<metadata>
Created by potrace 1.10, written by Peter Selinger 2001-2011
</metadata>
<g transform="translate(0.000000,300.000000) scale(0.100000,-0.100000)"
fill="#a8fff1" stroke="none">
<path d="M932 2949 c-29 -4 -55 -9 -58 -11 -2 -3 3 -56 11 -119 8 -63 14 -138
13 -166 -3 -45 -6 -53 -27 -58 -13 -3 -25 -4 -28 -2 -2 3 -15 -5 -29 -18 -19
-18 -31 -21 -51 -16 -15 4 -28 14 -31 22 -3 11 -2 11 7 -1 9 -12 13 -13 20 -2
4 8 14 13 22 12 25 -4 39 0 39 10 0 5 -23 7 -52 5 -44 -3 -47 -3 -18 4 l35 8
-38 2 c-21 0 -46 5 -56 10 -9 5 -22 6 -29 2 -8 -5 1 -13 25 -25 28 -13 33 -20
23 -26 -11 -7 -8 -11 13 -19 16 -6 35 -11 44 -11 27 0 -5 -28 -35 -32 -19 -2
-28 -10 -30 -25 -2 -13 1 -23 7 -23 6 0 8 6 5 14 -3 8 -1 17 4 20 5 3 9 -2 8
-11 0 -9 5 -18 12 -20 7 -3 12 5 13 19 1 13 5 6 9 -17 10 -53 5 -59 -34 -35
-19 11 -43 20 -54 20 -11 0 -24 4 -27 10 -7 11 38 60 56 60 6 0 1 11 -12 25
-13 13 -30 25 -36 25 -7 0 -13 9 -13 19 0 11 -3 27 -7 37 -5 13 -3 16 8 12 13
-5 11 17 -9 131 -14 75 -26 138 -28 139 -4 6 -130 -9 -142 -17 -7 -4 -6 -30 4
-86 18 -108 18 -109 -16 -122 -16 -6 -38 -26 -49 -44 -22 -36 -28 -64 -11 -54
5 3 21 3 35 -1 19 -5 25 -11 21 -23 -4 -11 -2 -10 9 3 17 22 20 40 5 31 -5 -3
-10 -1 -10 5 0 7 -9 9 -22 5 -16 -4 -19 -3 -10 3 8 5 13 12 13 16 0 3 19 24
44 47 36 33 46 38 51 26 3 -9 3 -21 -1 -27 -5 -8 3 -9 27 -5 22 4 40 1 53 -9
19 -13 19 -15 2 -33 -19 -21 -23 -74 -7 -102 6 -13 5 -24 -5 -37 -20 -27 -19
-31 15 -43 33 -11 40 -40 16 -60 -11 -9 -18 -5 -35 22 -12 19 -21 39 -21 45 0
6 -7 9 -15 6 -8 -4 -15 -1 -15 5 0 6 -9 11 -20 11 -13 0 -18 -5 -14 -15 4 -8
16 -15 28 -15 37 0 76 -97 46 -115 -5 -3 -10 1 -10 9 0 17 -49 66 -65 66 -5 0
-3 -5 5 -10 12 -8 10 -10 -9 -10 -18 0 -22 4 -16 18 5 9 9 33 9 52 2 43 12 61
31 54 8 -4 12 -10 9 -15 -3 -5 -1 -9 4 -9 6 0 12 7 16 15 3 9 12 12 23 9 15
-5 15 -4 3 5 -8 5 -25 8 -37 4 -25 -6 -30 6 -10 26 10 11 8 11 -11 2 -13 -7
-25 -19 -28 -27 -2 -8 -7 -22 -10 -31 -4 -10 -6 -28 -5 -40 1 -11 -3 -24 -9
-28 -7 -4 -9 1 -5 18 4 14 2 28 -4 32 -16 9 -2 56 22 78 11 9 15 17 9 17 -6 0
-14 -4 -17 -10 -3 -5 -24 -18 -47 -28 -27 -13 -35 -21 -25 -25 8 -3 20 0 27 6
10 9 11 9 8 -3 -3 -8 -13 -14 -22 -14 -9 1 -16 -2 -16 -6 0 -4 -11 -10 -24
-12 -22 -4 -22 -3 -10 21 8 14 14 33 14 41 0 9 6 22 13 29 9 11 7 11 -10 0
-21 -12 -33 -9 -128 39 -99 49 -142 64 -120 43 6 -5 59 -39 119 -75 59 -36
102 -68 95 -70 -8 -2 -27 -9 -44 -14 -29 -9 -30 -11 -28 -62 2 -29 9 -60 17
-69 7 -9 17 -30 20 -46 6 -26 14 -32 58 -45 32 -9 58 -24 69 -40 14 -21 30
-105 32 -178 0 -7 -13 -43 -30 -80 -17 -37 -40 -107 -51 -157 -11 -49 -28
-117 -37 -150 -9 -33 -18 -73 -21 -90 -3 -16 -11 -33 -17 -37 -9 -6 -9 -12 0
-28 7 -11 13 -33 13 -49 0 -21 9 -37 32 -55 34 -26 62 -20 38 9 -10 12 -10 15
1 14 19 -1 57 -17 42 -18 -7 -1 -10 -8 -7 -16 4 -8 1 -15 -6 -15 -7 0 -10 -6
-7 -14 3 -8 2 -16 -3 -18 -13 -4 -18 -137 -5 -140 9 -3 35 119 36 165 0 10 7
36 15 59 17 50 17 49 -1 42 -8 -4 -12 -11 -9 -16 4 -6 1 -14 -5 -18 -16 -9
-61 0 -61 12 0 6 9 8 20 5 27 -7 32 16 29 136 -2 64 3 132 13 182 18 90 64
199 80 189 18 -11 1 -84 -26 -113 -13 -14 -29 -39 -35 -56 l-11 -30 18 25 c9
14 28 36 43 50 35 34 49 63 70 140 18 66 15 96 -7 66 -6 -9 -15 -13 -18 -8 -9
15 5 70 20 83 24 20 16 73 -16 117 -17 23 -34 42 -39 42 -5 0 -12 9 -16 19 -3
11 -17 26 -30 35 -24 16 -24 16 -15 -10 6 -14 8 -30 5 -34 -3 -5 10 -27 29
-48 20 -22 33 -41 31 -44 -3 -2 2 -5 10 -5 12 0 12 3 2 16 -10 12 -9 14 6 8
10 -4 21 -7 23 -7 6 0 5 -46 -2 -64 -3 -8 -24 -30 -47 -49 l-42 -34 0 54 c0
43 4 58 20 69 19 14 19 15 0 32 -18 16 -18 16 -6 0 11 -15 11 -18 -3 -18 -9 0
-16 -5 -16 -12 0 -6 -2 -9 -5 -6 -3 3 -1 16 4 30 8 21 3 32 -27 71 -27 33 -38
58 -40 88 -1 24 1 38 7 35 5 -4 12 -2 16 4 3 5 -3 10 -14 10 -12 0 -21 5 -21
10 0 6 11 10 24 10 27 0 41 -26 29 -55 -5 -15 -3 -17 12 -12 29 12 81 -13 92
-44 14 -37 27 -37 43 1 20 49 178 108 181 68 6 -90 10 -104 36 -123 14 -11 33
-29 42 -39 9 -11 27 -31 40 -44 13 -14 31 -49 42 -78 17 -53 17 -57 -1 -166
-11 -62 -20 -134 -20 -160 0 -47 -13 -71 -24 -43 -3 8 -16 15 -28 15 -13 0
-18 -4 -12 -8 5 -4 18 -18 27 -31 14 -21 14 -28 2 -57 -8 -20 -10 -36 -4 -39
5 -4 9 -17 9 -31 0 -17 6 -24 18 -24 27 0 32 -9 20 -36 -13 -28 -20 -29 -53
-8 -21 14 -29 14 -55 3 -16 -8 -30 -18 -30 -24 0 -18 18 -38 28 -31 6 3 14 1
18 -5 3 -6 1 -15 -6 -19 -18 -11 -3 -29 20 -25 11 2 20 0 20 -5 0 -5 7 -7 15
-4 19 8 19 -4 0 -36 l-14 -25 -1 25 c-1 24 -2 24 -10 4 -4 -12 -16 -24 -26
-28 -13 -5 -14 -3 -7 6 15 20 23 48 14 48 -5 0 -11 -9 -14 -21 -5 -20 -34 -22
-31 -3 1 5 5 24 9 42 4 20 3 32 -4 32 -6 0 -11 -13 -11 -29 0 -20 -9 -36 -26
-50 -28 -22 -24 -46 7 -38 15 4 20 -2 24 -32 14 -89 29 -152 36 -157 5 -3 9 0
9 5 0 6 4 11 9 11 5 0 5 -15 -1 -35 -6 -19 -15 -32 -20 -29 -23 14 -3 -55 37
-129 25 -46 45 -92 45 -101 0 -10 18 -72 40 -138 47 -141 60 -241 40 -324 -11
-44 -11 -65 -2 -99 10 -36 9 -50 -4 -82 -9 -21 -24 -47 -34 -58 -9 -11 -20
-42 -24 -68 -5 -44 -4 -48 19 -59 28 -13 92 1 88 20 -2 6 3 9 11 6 7 -3 25 5
40 18 24 21 32 46 35 115 1 6 8 13 17 15 26 5 45 76 33 123 -6 22 -15 45 -19
50 -18 23 -42 192 -44 307 -1 119 -2 126 -40 211 -21 48 -48 94 -59 102 -20
14 -21 25 -23 296 l-3 282 29 72 c17 39 38 82 47 95 47 66 84 290 48 290 -8 0
-15 -8 -16 -17 -1 -40 -8 -73 -18 -90 -9 -15 -11 -9 -10 27 1 25 -1 64 -5 88
-5 27 -4 47 3 56 8 10 7 34 -5 92 -9 43 -19 83 -24 87 -7 8 10 103 25 140 4 9
3 17 -3 17 -6 0 -8 18 -6 43 3 32 2 37 -5 22 -8 -15 -9 -5 -6 35 4 43 2 49 -5
30 -8 -22 -9 -20 -5 13 2 21 -3 86 -11 145 -8 59 -17 132 -20 162 -4 30 -7 55
-8 56 0 0 -25 -3 -54 -7z m3 -134 c-9 -64 -19 -114 -21 -112 -3 2 -5 50 -6
105 -2 91 0 103 17 116 11 8 22 13 24 11 2 -3 -4 -56 -14 -120z m-416 -25
c-12 -44 -23 -79 -25 -78 -2 2 -4 37 -5 78 -2 67 0 75 22 93 34 27 36 8 8 -93z
m65 18 c17 -82 17 -98 0 -105 -25 -9 -46 25 -39 62 11 51 16 65 25 65 6 0 12
-10 14 -22z m405 -193 l1 -51 -34 0 c-24 0 -41 -8 -60 -28 -19 -22 -26 -25
-26 -12 0 9 9 25 19 35 35 35 51 67 54 108 1 23 5 39 10 36 4 -2 8 11 8 29 1
30 3 28 14 -17 7 -27 14 -73 14 -100z m-362 -25 c3 -11 11 -20 18 -20 7 0 18
-6 24 -13 8 -11 6 -18 -8 -31 -23 -21 -44 -13 -36 13 3 9 -2 26 -10 37 -17 23
-19 34 -4 34 6 0 13 -9 16 -20z m207 -46 c3 -9 6 -25 6 -37 0 -12 9 -37 20
-54 17 -28 19 -44 13 -113 -3 -44 -10 -80 -15 -80 -18 0 -59 38 -48 45 15 9
12 77 -5 99 -9 11 -15 41 -15 68 0 32 -4 48 -12 48 -13 0 31 39 43 40 4 0 10
-7 13 -16z m152 -21 c18 -24 17 -33 -1 -33 -8 0 -15 -9 -15 -20 0 -11 -7 -23
-15 -27 -12 -4 -10 -9 11 -19 14 -8 33 -14 40 -14 22 0 16 -18 -8 -25 -16 -6
-26 -1 -39 16 -10 13 -19 19 -19 12 0 -6 5 -15 10 -18 6 -4 8 -16 4 -28 -5
-18 -4 -20 7 -9 22 20 27 14 34 -38 6 -43 4 -54 -17 -79 -12 -15 -28 -37 -35
-47 -10 -17 -13 -17 -23 -4 -10 15 -7 131 5 149 3 5 0 40 -6 78 -8 49 -8 76 0
96 12 32 47 37 67 10z m-633 -80 c4 10 12 15 18 11 6 -3 14 -2 18 4 3 6 19 14
35 18 22 5 28 4 24 -7 -2 -7 -20 -17 -39 -22 -43 -11 -45 -13 -30 -31 7 -9 11
-38 9 -75 l-3 -61 -27 25 c-34 31 -36 55 -6 55 29 0 19 8 -17 13 -25 3 -31 10
-38 40 -8 33 -6 40 14 56 l24 19 5 -31 c4 -26 7 -28 13 -14z m342 -13 c11 -5
16 -9 10 -9 -5 -1 -20 -4 -32 -7 -17 -5 -23 -2 -23 10 0 17 14 19 45 6z m-159
-175 c4 -8 10 -13 14 -10 4 3 10 -1 13 -8 3 -7 -3 -13 -13 -13 -10 0 -18 4
-17 7 1 4 -7 15 -18 23 -18 14 -18 15 -2 16 10 0 20 -7 23 -15z m467 -147
c-23 -34 -24 -41 -13 -68 8 -20 9 -34 3 -43 -6 -6 -11 -19 -11 -27 -1 -8 -6
-37 -12 -65 -5 -27 -16 -86 -24 -130 -17 -93 -31 -135 -46 -135 -6 0 -4 12 5
29 8 16 24 85 35 153 11 68 25 143 30 168 8 44 -1 113 -22 153 -9 19 10 62 47
105 l20 24 7 -64 c7 -58 5 -66 -19 -100z m45 -220 c-6 -118 -85 -315 -114
-285 -3 3 6 41 19 84 14 43 30 114 36 156 10 75 32 127 53 127 6 0 8 -32 6
-82z m-628 -222 c0 -7 -7 -19 -15 -26 -8 -7 -15 -19 -15 -26 0 -19 -19 -18
-26 1 -3 8 1 22 10 30 9 9 16 21 16 26 0 5 7 9 15 9 8 0 15 -6 15 -14z m-6
-79 c-8 -4 -14 -13 -14 -20 0 -7 -9 -18 -20 -25 -18 -11 -20 -10 -20 19 0 22
4 30 14 26 8 -3 18 5 26 21 12 25 13 26 20 7 5 -13 3 -23 -6 -28z m-6 -82 c-2
-17 -8 -25 -20 -25 -21 0 -21 1 -8 35 12 31 31 24 28 -10z m541 -92 c-1 -103
-3 -121 -11 -93 -5 19 -14 39 -19 45 -12 12 -12 52 1 60 6 3 10 21 10 38 0 33
9 77 16 77 2 0 4 -57 3 -127z m-99 95 c7 -18 9 -19 9 -5 1 18 16 23 25 8 10
-16 -6 -71 -20 -71 -8 0 -14 7 -14 16 0 22 -27 48 -33 31 -4 -8 -6 -7 -6 4 -1
13 17 39 26 39 2 0 8 -10 13 -22z m62 -65 c-8 -24 -21 -13 -18 15 6 45 8 48
15 22 4 -14 6 -31 3 -37z m3 -186 c1 -58 8 -113 15 -124 9 -14 10 -3 6 55 -3
41 -8 78 -12 83 -3 5 0 9 5 9 6 0 11 -8 12 -17 0 -10 4 -55 7 -100 6 -66 5
-79 -6 -71 -7 6 -15 9 -17 6 -5 -4 8 -50 28 -98 l10 -25 7 25 c6 24 7 24 28
-16 l21 -42 -22 5 c-17 4 -15 0 9 -15 50 -32 69 -102 66 -237 -1 -69 3 -132
12 -170 15 -60 10 -82 -16 -72 -9 3 -19 38 -27 93 -18 120 -18 124 -30 164 -5
19 -15 62 -21 95 -7 33 -17 67 -22 75 -6 10 -7 6 -2 -15 3 -16 8 -52 10 -80 2
-27 8 -66 14 -85 17 -58 10 -59 -10 -1 -10 30 -16 61 -12 69 3 9 1 13 -5 9 -6
-4 -9 8 -8 28 0 18 -3 31 -7 29 -14 -9 -12 81 2 105 5 9 0 27 -11 45 -10 17
-19 38 -19 46 0 28 -52 150 -63 150 -13 0 -50 137 -41 151 3 5 13 9 22 9 9 1
28 7 42 15 14 7 26 12 28 10 2 -1 5 -50 7 -108z m194 -836 c6 -10 13 -37 17
-59 5 -35 3 -46 -20 -72 -29 -35 -32 -45 -15 -56 20 -12 -7 -27 -29 -15 -11 6
-31 11 -44 11 -17 0 -20 2 -9 9 20 13 16 79 -6 104 -10 11 -13 17 -6 14 14 -8
30 32 17 42 -21 15 -14 31 10 25 14 -3 33 -1 43 5 25 15 31 14 42 -8z m-44
-213 c31 -14 31 -22 2 -72 -23 -42 -62 -60 -104 -50 -38 10 -29 35 10 27 29
-6 31 -5 18 10 -22 27 3 97 35 97 7 0 25 -5 39 -12z"/>
<path d="M510 2639 c-15 -28 -5 -70 15 -63 11 5 12 11 4 25 -6 13 -6 19 1 19
5 0 10 -4 10 -10 0 -16 17 -12 24 6 4 10 2 13 -7 8 -9 -5 -9 -4 1 7 18 20 15
29 -13 29 -14 0 -29 -8 -35 -21z"/>
<path d="M718 2359 c-10 -5 -18 -18 -18 -27 0 -15 -2 -15 -10 -2 -5 8 -18 15
-29 16 -14 1 -18 -4 -15 -19 2 -12 -3 -28 -11 -38 -14 -14 -13 -19 5 -40 16
-19 19 -20 13 -5 -5 15 -3 18 9 13 17 -6 19 8 5 31 -5 8 0 15 15 21 13 5 30
16 37 25 7 9 19 16 27 16 7 0 16 5 19 10 8 13 -25 12 -47 -1z"/>
<path d="M543 2310 c54 -79 67 -102 81 -146 8 -27 15 -44 15 -39 2 12 21 -16
21 -30 0 -5 -4 -4 -9 4 -5 7 -7 -36 -4 -102 l5 -114 -29 -30 c-29 -29 -37 -47
-63 -128 -7 -22 -25 -68 -41 -103 -16 -35 -26 -69 -22 -79 4 -11 3 -14 -5 -9
-8 5 -10 1 -5 -10 4 -12 3 -15 -5 -10 -9 5 -9 0 -2 -20 6 -15 8 -59 5 -98 -4
-64 -3 -61 15 38 13 69 17 113 11 120 -6 7 -6 17 0 26 9 13 9 13 7 0 -2 -9 2
-17 7 -19 12 -4 51 110 66 192 13 73 34 77 25 5 -4 -41 -1 -61 13 -88 l19 -34
12 57 c12 50 11 61 -5 97 -15 34 -16 44 -5 70 15 35 19 33 36 -15 8 -25 8 -35
0 -39 -8 -3 -7 -5 1 -5 13 -1 49 45 78 102 11 21 32 46 47 55 27 16 28 16 45
-8 24 -34 25 -61 2 -67 -11 -3 -22 -17 -26 -31 -3 -14 -28 -50 -56 -80 l-49
-55 6 -66 c10 -102 -12 -134 -34 -51 -9 33 -8 45 6 67 12 20 5 15 -25 -15 -24
-25 -40 -50 -37 -58 3 -7 1 -16 -5 -20 -27 -16 -131 -276 -146 -361 l-8 -48
-6 45 -6 45 -1 -51 c-2 -64 10 -77 25 -27 6 21 12 30 12 20 1 -10 4 -16 9 -14
10 7 9 -85 -2 -102 -7 -10 -14 -7 -35 15 -22 25 -26 26 -29 10 -2 -9 2 -31 9
-48 11 -27 14 -29 24 -14 20 27 43 8 54 -46 6 -27 16 -59 22 -70 17 -31 14
-124 -6 -210 -14 -58 -16 -83 -8 -100 21 -47 -9 -181 -36 -163 -5 3 -14 -9
-20 -25 -7 -22 -16 -30 -34 -30 -14 0 -30 -7 -37 -15 -7 -8 -16 -13 -20 -10
-5 3 -12 0 -16 -6 -4 -8 -3 -9 4 -5 7 4 12 2 12 -3 0 -15 -53 -14 -68 1 -9 9
-2 20 28 48 22 20 40 43 40 50 0 10 -3 10 -15 0 -8 -7 -15 -10 -15 -8 0 3 -16
-9 -35 -28 -19 -18 -35 -37 -35 -42 0 -5 -15 -15 -32 -22 -84 -33 -98 -42 -98
-65 0 -30 36 -37 142 -25 68 8 91 15 127 41 29 20 51 29 65 25 11 -3 38 0 58
6 36 11 38 13 38 54 0 46 -15 95 -32 105 -7 4 -3 14 11 25 25 22 27 51 4 76
-16 17 -15 25 6 123 26 113 24 167 -9 240 -30 67 -34 175 -9 258 30 101 103
241 153 296 24 25 41 52 39 59 -9 24 8 81 32 110 13 16 28 47 33 70 6 27 21
51 44 71 34 30 35 32 31 97 -3 66 -16 99 -34 88 -5 -3 -9 3 -9 12 0 10 -12 30
-27 46 -14 15 -25 29 -22 30 2 2 19 11 38 21 l34 18 -7 -55 c-7 -61 8 -84 24
-40 13 34 1 125 -17 132 -7 2 -13 -4 -13 -12 0 -9 -10 -20 -22 -25 -19 -7 -26
-2 -46 28 -22 34 -26 36 -81 37 -71 1 -117 22 -113 49 2 11 0 17 -4 12 -4 -4
-23 10 -43 30 -19 21 -27 27 -18 13z m244 -142 c29 -27 29 -35 -2 -60 -14 -11
-33 -34 -41 -51 -9 -18 -23 -40 -32 -49 -14 -17 -16 -17 -29 0 -14 16 -14 16
-9 -1 3 -10 6 -26 6 -35 0 -24 68 45 86 86 18 43 43 39 69 -12 20 -37 20 -38
1 -50 -48 -28 -85 -70 -98 -108 -7 -23 -17 -43 -23 -45 -5 -1 -18 17 -28 42
-22 53 -32 195 -14 195 7 0 21 19 31 43 35 76 45 81 83 45z m-93 -611 c6 -60
-8 -60 -28 0 -19 55 -19 56 -6 48 6 -3 10 -1 10 6 0 9 3 10 10 3 5 -5 12 -31
14 -57z m-68 -125 c-20 -33 -46 -82 -58 -109 -27 -60 -24 -52 -33 -91 -5 -21
-11 -30 -17 -24 -6 6 -3 30 8 63 32 99 92 237 113 263 15 18 16 17 19 -11 2
-20 -9 -50 -32 -91z m-58 -1017 c-2 -19 1 -37 7 -39 5 -3 -3 -3 -20 -1 -16 3
-24 2 -17 -1 12 -6 7 -24 -7 -24 -15 0 -19 39 -6 50 7 6 19 25 26 42 15 36 23
23 17 -27z m-78 -43 c0 -9 -69 -36 -76 -29 -2 2 -2 12 2 21 6 16 74 24 74 8z
m-145 -28 c14 -9 31 -14 40 -11 8 4 17 2 20 -3 9 -14 -32 -27 -95 -30 -81 -4
-120 -1 -120 10 0 5 12 7 28 4 19 -3 35 2 57 20 36 30 39 31 70 10z"/>
<path d="M725 2085 c-34 -52 -45 -82 -26 -70 11 6 72 125 65 125 -2 0 -20 -25
-39 -55z"/>
<path d="M802 2023 c-37 -34 -115 -123 -106 -123 5 0 37 32 72 70 62 68 75 88
34 53z"/>
<path d="M813 1592 c-39 -33 -74 -111 -69 -155 5 -44 20 -40 24 6 2 20 9 37
15 37 8 0 8 3 -1 9 -11 7 -11 15 2 45 17 40 31 49 21 14 -6 -22 -5 -22 6 -3 7
11 21 32 31 48 25 34 12 34 -29 -1z"/>
<path d="M343 1168 l-42 -31 18 -26 c33 -47 106 -185 126 -236 14 -37 19 -75
20 -150 0 -133 -9 -175 -37 -172 -14 1 -26 -6 -35 -23 -11 -21 -10 -27 4 -37
23 -17 33 -16 33 3 0 10 -6 14 -14 11 -10 -4 -13 -1 -10 7 7 18 67 27 76 12 4
-6 8 -21 8 -34 0 -30 13 -21 35 24 12 25 14 39 6 47 -6 6 -9 46 -6 106 l4 96
-10 -90 c-7 -63 -7 -95 0 -107 8 -12 8 -26 0 -45 l-10 -27 -18 30 c-12 19 -15
33 -9 41 6 7 12 57 15 112 5 79 2 118 -15 193 -12 51 -23 102 -25 113 -3 12
-5 7 -6 -13 -1 -28 -3 -31 -15 -20 -13 11 -12 17 3 44 16 27 17 34 5 55 -7 13
-13 36 -14 50 0 31 -27 99 -38 98 -4 0 -26 -14 -49 -31z m70 -82 c18 -53 11
-67 -13 -28 -28 45 -34 72 -17 72 9 0 22 -19 30 -44z"/>
<path d="M537 880 c8 -43 8 -60 -1 -85 -4 -11 0 -8 8 6 14 24 14 32 1 70 -12
37 -13 38 -8 9z"/>
</g>
</svg>
